<svg data-v-423bf9ae="" xmlns="http://www.w3.org/2000/svg" viewBox="0 0 402 90" class="iconLeftSlogan"><!----><defs data-v-423bf9ae=""><linearGradient data-v-423bf9ae="" gradientTransform="rotate(25)" id="19a48fb2-14d3-4f0f-8f1e-64c0a690ae9d" x1="0%" y1="0%" x2="100%" y2="0%"><stop data-v-423bf9ae="" offset="0%" style="stop-color: rgb(18, 38, 99); stop-opacity: 1;"></stop><stop data-v-423bf9ae="" offset="100%" style="stop-color: rgb(93, 215, 173); stop-opacity: 1;"></stop></linearGradient></defs><!----><g data-v-423bf9ae="" id="c71d3702-337e-4063-a0f4-7c59da06c795" fill="#ffffff" transform="matrix(5.028133448546047,0,0,5.028133448546047,105.97748961543488,-16.84424704994624)"><path d="M0.85 12.53L0.85 12.53Q0.83 12.32 0.82 12.04Q0.81 11.76 0.82 11.47Q0.83 11.17 0.83 10.89Q0.84 10.61 0.83 10.40L0.83 10.40Q0.81 9.98 0.81 9.72Q0.80 9.46 0.80 9.23Q0.80 9.00 0.81 8.74Q0.81 8.48 0.81 8.06L0.81 8.06L0.83 6.73Q0.84 5.94 0.88 5.13Q0.91 4.33 1.02 3.53L1.02 3.53Q1.20 3.47 1.40 3.36L1.40 3.36Q1.58 3.36 1.72 3.35Q1.85 3.35 1.99 3.49L1.99 3.49Q2.06 3.70 2.06 3.89L2.06 3.89Q2.06 5.04 2.04 6.17Q2.02 7.31 2.02 8.44L2.02 8.44Q2.02 9.41 2.03 10.36Q2.04 11.31 2.04 12.28L2.04 12.28Q2.04 12.50 1.99 12.61Q1.93 12.71 1.83 12.73Q1.72 12.75 1.59 12.73Q1.46 12.71 1.32 12.68L1.32 12.68Q1.19 12.66 1.06 12.65Q0.94 12.64 0.85 12.53ZM7.67 7.53L7.67 7.53Q7.92 7.90 8.02 8.41Q8.11 8.93 8.12 9.50Q8.13 10.07 8.10 10.62Q8.06 11.17 8.05 11.59L8.05 11.59L8.04 11.61Q8.04 11.90 8.02 12.28Q7.99 12.66 7.99 12.85L7.99 12.85Q7.80 12.87 7.62 12.90Q7.43 12.94 7.24 12.94L7.24 12.94Q7.17 12.80 7.04 12.71Q6.92 12.63 6.90 12.46L6.90 12.46Q6.82 12.49 6.76 12.51Q6.69 12.53 6.63 12.56Q6.57 12.59 6.47 12.61Q6.37 12.64 6.22 12.68L6.22 12.68Q6.02 12.73 5.83 12.77Q5.64 12.81 5.45 12.81L5.45 12.81Q5.42 12.81 5.42 12.82L5.42 12.82Q4.97 12.82 4.54 12.74Q4.12 12.66 3.75 12.33L3.75 12.33Q3.29 11.94 3.29 11.34L3.29 11.34Q3.29 11.30 3.29 11.30L3.29 11.30L3.29 11.10Q3.29 10.72 3.51 10.43Q3.74 10.14 4.07 9.93Q4.40 9.72 4.77 9.58Q5.15 9.45 5.47 9.39L5.47 9.39Q5.80 9.34 6.14 9.34Q6.48 9.34 6.80 9.28L6.80 9.28Q6.79 9.06 6.80 8.82Q6.80 8.58 6.73 8.36L6.73 8.36Q6.65 8.05 6.42 7.92Q6.19 7.78 5.90 7.78Q5.61 7.77 5.33 7.85Q5.04 7.94 4.83 8.08L4.83 8.08Q4.59 8.23 4.41 8.44Q4.23 8.64 4.06 8.85L4.06 8.85Q4.03 8.85 3.96 8.79Q3.88 8.72 3.79 8.64Q3.70 8.57 3.62 8.50Q3.54 8.43 3.51 8.43L3.51 8.43Q3.77 7.77 4.30 7.32Q4.83 6.87 5.44 6.72Q6.05 6.57 6.66 6.75Q7.27 6.93 7.67 7.53ZM6.89 10.23L6.89 10.23Q6.83 10.19 6.72 10.20Q6.61 10.21 6.54 10.18L6.54 10.18Q6.16 10.18 5.89 10.25Q5.63 10.32 5.26 10.44L5.26 10.44Q5.24 10.46 5.19 10.46Q5.15 10.47 5.12 10.50L5.12 10.50Q4.96 10.57 4.76 10.74Q4.56 10.91 4.54 11.10L4.54 11.10Q4.54 11.17 4.54 11.22Q4.54 11.27 4.56 11.34L4.56 11.34Q4.63 11.54 4.99 11.60Q5.35 11.66 5.75 11.63Q6.16 11.61 6.50 11.51Q6.83 11.41 6.85 11.30L6.85 11.30Q6.87 11.06 6.88 10.77Q6.89 10.47 6.89 10.23ZM13.06 8.05L13.06 8.05Q12.91 8.09 12.36 8.11Q11.80 8.13 11.13 8.15L11.13 8.15Q11.12 8.72 11.11 9.28Q11.10 9.84 11.07 10.47L11.07 10.47Q11.06 10.85 11.21 11.09Q11.35 11.33 11.70 11.52L11.70 11.52Q11.86 11.61 12.12 11.63Q12.38 11.66 12.57 11.45L12.57 11.45Q12.75 11.35 12.92 11.38Q13.08 11.41 13.20 11.51Q13.33 11.61 13.41 11.72Q13.48 11.83 13.50 11.90L13.50 11.90Q13.33 12.24 13.17 12.41Q13.02 12.59 12.85 12.66Q12.68 12.74 12.48 12.75Q12.28 12.75 12.01 12.75L12.01 12.75Q11.63 12.74 11.39 12.68Q11.14 12.61 10.86 12.39L10.86 12.39Q10.40 12.01 10.19 11.67Q9.98 11.33 9.91 10.96Q9.83 10.58 9.85 10.15Q9.87 9.72 9.90 9.17L9.90 9.17Q9.91 8.93 9.92 8.68Q9.93 8.43 9.93 8.16L9.93 8.16Q9.60 8.18 9.35 8.18Q9.09 8.18 8.96 8.18L8.96 8.18Q8.81 8.02 8.79 7.77Q8.78 7.52 8.81 7.15L8.81 7.15Q8.88 7.06 9.23 7.01Q9.59 6.97 9.97 6.97L9.97 6.97Q9.98 6.73 9.99 6.50Q10.00 6.26 10.01 6.03L10.01 6.03Q10.02 5.66 10.02 5.23Q10.02 4.80 10.14 4.44L10.14 4.44Q10.25 4.41 10.39 4.37Q10.53 4.33 10.67 4.30L10.67 4.30Q10.75 4.27 10.97 4.29Q11.19 4.31 11.27 4.31L11.27 4.31Q11.27 4.38 11.28 4.60Q11.30 4.82 11.28 4.94L11.28 4.94Q11.26 5.26 11.25 5.54Q11.24 5.82 11.21 6.19L11.21 6.19Q11.20 6.38 11.19 6.57Q11.19 6.76 11.17 6.96L11.17 6.96Q11.62 6.93 12.14 6.93Q12.66 6.93 13.02 6.99L13.02 6.99Q13.08 7.04 13.10 7.21Q13.12 7.38 13.12 7.56Q13.12 7.74 13.10 7.89Q13.08 8.04 13.06 8.05ZM18.51 7.53L18.51 7.53Q18.76 7.90 18.85 8.41Q18.94 8.93 18.96 9.50Q18.97 10.07 18.94 10.62Q18.90 11.17 18.89 11.59L18.89 11.59L18.87 11.61Q18.87 11.90 18.85 12.28Q18.83 12.66 18.83 12.85L18.83 12.85Q18.63 12.87 18.45 12.90Q18.27 12.94 18.07 12.94L18.07 12.94Q18.00 12.80 17.88 12.71Q17.75 12.63 17.74 12.46L17.74 12.46Q17.65 12.49 17.59 12.51Q17.53 12.53 17.46 12.56Q17.40 12.59 17.30 12.61Q17.21 12.64 17.05 12.68L17.05 12.68Q16.86 12.73 16.67 12.77Q16.48 12.81 16.28 12.81L16.28 12.81Q16.25 12.81 16.25 12.82L16.25 12.82Q15.81 12.82 15.38 12.74Q14.95 12.66 14.59 12.33L14.59 12.33Q14.13 11.94 14.13 11.34L14.13 11.34Q14.13 11.30 14.13 11.30L14.13 11.30L14.13 11.10Q14.13 10.72 14.35 10.43Q14.57 10.14 14.90 9.93Q15.23 9.72 15.61 9.58Q15.99 9.45 16.31 9.39L16.31 9.39Q16.63 9.34 16.98 9.34Q17.32 9.34 17.64 9.28L17.64 9.28Q17.63 9.06 17.63 8.82Q17.64 8.58 17.57 8.36L17.57 8.36Q17.49 8.05 17.26 7.92Q17.02 7.78 16.74 7.78Q16.45 7.77 16.16 7.85Q15.88 7.94 15.67 8.08L15.67 8.08Q15.43 8.23 15.25 8.44Q15.06 8.64 14.90 8.85L14.90 8.85Q14.87 8.85 14.79 8.79Q14.71 8.72 14.62 8.64Q14.53 8.57 14.46 8.50Q14.38 8.43 14.35 8.43L14.35 8.43Q14.60 7.77 15.13 7.32Q15.67 6.87 16.28 6.72Q16.88 6.57 17.49 6.75Q18.10 6.93 18.51 7.53ZM17.72 10.23L17.72 10.23Q17.67 10.19 17.56 10.20Q17.44 10.21 17.37 10.18L17.37 10.18Q17.00 10.18 16.73 10.25Q16.46 10.32 16.10 10.44L16.10 10.44Q16.07 10.46 16.03 10.46Q15.99 10.47 15.96 10.50L15.96 10.50Q15.79 10.57 15.60 10.74Q15.40 10.91 15.37 11.10L15.37 11.10Q15.37 11.17 15.37 11.22Q15.37 11.27 15.40 11.34L15.40 11.34Q15.47 11.54 15.83 11.60Q16.18 11.66 16.59 11.63Q17.00 11.61 17.33 11.51Q17.67 11.41 17.68 11.30L17.68 11.30Q17.71 11.06 17.72 10.77Q17.72 10.47 17.72 10.23ZM24.18 8.05L24.18 8.05Q24.09 8.08 23.90 8.09Q23.70 8.11 23.43 8.12Q23.16 8.13 22.83 8.14Q22.50 8.15 22.16 8.16L22.16 8.16Q22.13 8.88 22.15 9.58Q22.16 10.28 22.16 10.98L22.16 10.98Q22.16 11.34 22.16 11.62Q22.15 11.90 22.16 12.22L22.16 12.22Q22.16 12.36 22.14 12.57Q22.12 12.78 22.12 12.87L22.12 12.87Q22.08 12.87 21.99 12.87Q21.91 12.88 21.81 12.89Q21.71 12.89 21.64 12.90Q21.56 12.91 21.52 12.89L21.52 12.89Q21.38 12.88 21.24 12.84Q21.10 12.80 20.99 12.78L20.99 12.78Q20.89 12.42 20.91 11.98Q20.93 11.55 20.94 11.17L20.94 11.17Q20.96 10.43 20.98 9.71Q21 8.99 21 8.25L21 8.25L21 8.19Q20.68 8.19 20.43 8.20Q20.19 8.20 20.08 8.20L20.08 8.20Q19.92 8.05 19.90 7.81Q19.88 7.56 19.89 7.20L19.89 7.20Q19.96 7.08 20.31 7.04Q20.65 7 21.01 6.99L21.01 6.99Q21.03 6.55 21.09 6.13Q21.15 5.70 21.28 5.30Q21.41 4.90 21.62 4.54Q21.84 4.19 22.18 3.91L22.18 3.91Q22.47 3.67 22.73 3.60Q22.99 3.53 23.35 3.50L23.35 3.50Q23.63 3.49 23.87 3.49Q24.11 3.49 24.31 3.56Q24.51 3.64 24.69 3.81Q24.86 3.98 25.00 4.30L25.00 4.30Q25.10 4.52 25.13 4.65Q25.16 4.77 25.03 4.97L25.03 4.97Q24.98 4.98 24.86 5.00Q24.74 5.03 24.61 5.05Q24.49 5.07 24.38 5.08Q24.28 5.10 24.26 5.08L24.26 5.08Q24.18 5.07 24.14 4.96Q24.09 4.84 24.05 4.77L24.05 4.77Q24.05 4.62 23.91 4.58Q23.77 4.54 23.60 4.56Q23.42 4.58 23.25 4.63Q23.07 4.69 22.99 4.73L22.99 4.73Q22.81 4.84 22.68 5.00Q22.55 5.17 22.48 5.37Q22.40 5.57 22.36 5.78Q22.32 5.99 22.29 6.17L22.29 6.17L22.20 6.97Q22.67 6.94 23.20 6.93Q23.73 6.92 24.11 6.99L24.11 6.99Q24.16 7.04 24.19 7.21Q24.22 7.38 24.22 7.56Q24.22 7.74 24.21 7.89Q24.19 8.04 24.18 8.05ZM29.05 7.53L29.05 7.53Q29.30 7.90 29.39 8.41Q29.48 8.93 29.50 9.50Q29.51 10.07 29.48 10.62Q29.44 11.17 29.43 11.59L29.43 11.59L29.41 11.61Q29.41 11.90 29.39 12.28Q29.37 12.66 29.37 12.85L29.37 12.85Q29.18 12.87 28.99 12.90Q28.81 12.94 28.62 12.94L28.62 12.94Q28.55 12.80 28.42 12.71Q28.29 12.63 28.28 12.46L28.28 12.46Q28.20 12.49 28.13 12.51Q28.07 12.53 28.01 12.56Q27.94 12.59 27.85 12.61Q27.75 12.64 27.59 12.68L27.59 12.68Q27.40 12.73 27.21 12.77Q27.02 12.81 26.82 12.81L26.82 12.81Q26.80 12.81 26.80 12.82L26.80 12.82Q26.35 12.82 25.92 12.74Q25.49 12.66 25.13 12.33L25.13 12.33Q24.67 11.94 24.67 11.34L24.67 11.34Q24.67 11.30 24.67 11.30L24.67 11.30L24.67 11.10Q24.67 10.72 24.89 10.43Q25.12 10.14 25.45 9.93Q25.77 9.72 26.15 9.58Q26.53 9.45 26.85 9.39L26.85 9.39Q27.17 9.34 27.52 9.34Q27.86 9.34 28.18 9.28L28.18 9.28Q28.17 9.06 28.18 8.82Q28.18 8.58 28.11 8.36L28.11 8.36Q28.03 8.05 27.80 7.92Q27.57 7.78 27.28 7.78Q26.99 7.77 26.71 7.85Q26.42 7.94 26.21 8.08L26.21 8.08Q25.97 8.23 25.79 8.44Q25.61 8.64 25.44 8.85L25.44 8.85Q25.41 8.85 25.33 8.79Q25.26 8.72 25.17 8.64Q25.07 8.57 25.00 8.50Q24.92 8.43 24.89 8.43L24.89 8.43Q25.14 7.77 25.68 7.32Q26.21 6.87 26.82 6.72Q27.43 6.57 28.04 6.75Q28.64 6.93 29.05 7.53ZM28.27 10.23L28.27 10.23Q28.21 10.19 28.10 10.20Q27.99 10.21 27.92 10.18L27.92 10.18Q27.54 10.18 27.27 10.25Q27.01 10.32 26.64 10.44L26.64 10.44Q26.61 10.46 26.57 10.46Q26.53 10.47 26.50 10.50L26.50 10.50Q26.33 10.57 26.14 10.74Q25.94 10.91 25.91 11.10L25.91 11.10Q25.91 11.17 25.91 11.22Q25.91 11.27 25.94 11.34L25.94 11.34Q26.01 11.54 26.37 11.60Q26.73 11.66 27.13 11.63Q27.54 11.61 27.87 11.51Q28.21 11.41 28.22 11.30L28.22 11.30Q28.25 11.06 28.26 10.77Q28.27 10.47 28.27 10.23ZM34.82 7.92L34.82 7.92Q34.71 7.94 34.61 7.93Q34.51 7.92 34.41 7.92L34.41 7.92Q34.38 7.91 34.31 7.91Q34.23 7.91 34.20 7.92L34.20 7.92Q33.82 8.02 33.50 8.23Q33.18 8.44 32.92 8.71Q32.66 8.99 32.47 9.29Q32.27 9.59 32.14 9.86L32.14 9.86Q32.14 10.09 32.15 10.49Q32.16 10.88 32.16 11.29Q32.16 11.70 32.14 12.08Q32.13 12.45 32.09 12.66L32.09 12.66Q32.06 12.78 31.90 12.83Q31.74 12.88 31.54 12.89Q31.35 12.89 31.15 12.88Q30.95 12.87 30.86 12.85L30.86 12.85Q30.86 11.49 30.88 10.16Q30.90 8.82 30.90 7.46L30.90 7.46Q30.90 7.31 30.91 7.15Q30.93 6.99 30.94 6.82L30.94 6.82Q31.07 6.82 31.25 6.79Q31.43 6.76 31.54 6.79L31.54 6.79Q31.71 6.83 31.84 6.94Q31.98 7.04 32.10 7.28L32.10 7.28Q32.14 7.46 32.14 7.66Q32.14 7.85 32.16 8.04L32.16 8.04L32.17 8.04Q32.37 7.85 32.59 7.63Q32.80 7.41 33.11 7.23Q33.42 7.06 33.84 6.97Q34.26 6.89 34.86 6.99L34.86 6.99Q34.93 7.04 34.94 7.17Q34.96 7.31 34.94 7.46Q34.92 7.60 34.88 7.74Q34.85 7.87 34.82 7.92ZM39.80 7.92L39.80 7.92Q39.69 7.94 39.59 7.93Q39.49 7.92 39.40 7.92L39.40 7.92Q39.37 7.91 39.29 7.91Q39.21 7.91 39.19 7.92L39.19 7.92Q38.81 8.02 38.49 8.23Q38.16 8.44 37.91 8.71Q37.65 8.99 37.45 9.29Q37.25 9.59 37.13 9.86L37.13 9.86Q37.13 10.09 37.13 10.49Q37.14 10.88 37.14 11.29Q37.14 11.70 37.13 12.08Q37.11 12.45 37.07 12.66L37.07 12.66Q37.04 12.78 36.88 12.83Q36.72 12.88 36.53 12.89Q36.33 12.89 36.13 12.88Q35.94 12.87 35.84 12.85L35.84 12.85Q35.84 11.49 35.86 10.16Q35.88 8.82 35.88 7.46L35.88 7.46Q35.88 7.31 35.90 7.15Q35.91 6.99 35.92 6.82L35.92 6.82Q36.05 6.82 36.23 6.79Q36.41 6.76 36.53 6.79L36.53 6.79Q36.69 6.83 36.83 6.94Q36.96 7.04 37.09 7.28L37.09 7.28Q37.13 7.46 37.13 7.66Q37.13 7.85 37.14 8.04L37.14 8.04L37.16 8.04Q37.35 7.85 37.57 7.63Q37.79 7.41 38.09 7.23Q38.40 7.06 38.82 6.97Q39.24 6.89 39.84 6.99L39.84 6.99Q39.91 7.04 39.93 7.17Q39.94 7.31 39.92 7.46Q39.90 7.60 39.87 7.74Q39.83 7.87 39.80 7.92ZM44.67 7.53L44.67 7.53Q44.93 7.90 45.02 8.41Q45.11 8.93 45.12 9.50Q45.14 10.07 45.10 10.62Q45.07 11.17 45.05 11.59L45.05 11.59L45.04 11.61Q45.04 11.90 45.02 12.28Q45.00 12.66 45.00 12.85L45.00 12.85Q44.80 12.87 44.62 12.90Q44.44 12.94 44.24 12.94L44.24 12.94Q44.17 12.80 44.04 12.71Q43.92 12.63 43.90 12.46L43.90 12.46Q43.82 12.49 43.76 12.51Q43.69 12.53 43.63 12.56Q43.57 12.59 43.47 12.61Q43.37 12.64 43.22 12.68L43.22 12.68Q43.02 12.73 42.83 12.77Q42.64 12.81 42.45 12.81L42.45 12.81Q42.42 12.81 42.42 12.82L42.42 12.82Q41.97 12.82 41.55 12.74Q41.12 12.66 40.75 12.33L40.75 12.33Q40.29 11.94 40.29 11.34L40.29 11.34Q40.29 11.30 40.29 11.30L40.29 11.30L40.29 11.10Q40.29 10.72 40.52 10.43Q40.74 10.14 41.07 9.93Q41.40 9.72 41.78 9.58Q42.15 9.45 42.48 9.39L42.48 9.39Q42.80 9.34 43.14 9.34Q43.48 9.34 43.81 9.28L43.81 9.28Q43.79 9.06 43.80 8.82Q43.81 8.58 43.74 8.36L43.74 8.36Q43.65 8.05 43.42 7.92Q43.19 7.78 42.90 7.78Q42.62 7.77 42.33 7.85Q42.04 7.94 41.83 8.08L41.83 8.08Q41.59 8.23 41.41 8.44Q41.23 8.64 41.06 8.85L41.06 8.85Q41.03 8.85 40.96 8.79Q40.88 8.72 40.79 8.64Q40.70 8.57 40.62 8.50Q40.54 8.43 40.52 8.43L40.52 8.43Q40.77 7.77 41.30 7.32Q41.83 6.87 42.44 6.72Q43.05 6.57 43.66 6.75Q44.27 6.93 44.67 7.53ZM43.89 10.23L43.89 10.23Q43.83 10.19 43.72 10.20Q43.61 10.21 43.54 10.18L43.54 10.18Q43.16 10.18 42.90 10.25Q42.63 10.32 42.27 10.44L42.27 10.44Q42.24 10.46 42.20 10.46Q42.15 10.47 42.13 10.50L42.13 10.50Q41.96 10.57 41.76 10.74Q41.57 10.91 41.54 11.10L41.54 11.10Q41.54 11.17 41.54 11.22Q41.54 11.27 41.57 11.34L41.57 11.34Q41.64 11.54 41.99 11.60Q42.35 11.66 42.76 11.63Q43.16 11.61 43.50 11.51Q43.83 11.41 43.85 11.30L43.85 11.30Q43.88 11.06 43.88 10.77Q43.89 10.47 43.89 10.23ZM51.56 15.27L51.56 15.27Q51.39 15.30 51.18 15.26Q50.97 15.22 50.79 15.25L50.79 15.25Q50.69 15.22 50.55 15.26Q50.41 15.30 50.33 15.25L50.33 15.25Q50.33 14.42 50.37 13.50Q50.41 12.57 50.37 11.75L50.37 11.75Q50.08 11.93 49.76 12.09Q49.45 12.25 49.12 12.34Q48.79 12.43 48.45 12.44Q48.12 12.45 47.77 12.33L47.77 12.33Q47.05 12.10 46.68 11.60Q46.31 11.10 46.23 10.49Q46.14 9.87 46.32 9.22Q46.49 8.57 46.89 8.04Q47.28 7.50 47.85 7.16Q48.43 6.82 49.14 6.82L49.14 6.82Q49.55 6.82 49.93 6.96Q50.32 7.10 50.68 7.29L50.68 7.29Q50.72 7.13 50.77 7.07Q50.82 7.01 50.85 6.85L50.85 6.85Q50.92 6.79 51.07 6.82Q51.23 6.85 51.30 6.92L51.30 6.92Q51.31 6.92 51.38 6.93Q51.45 6.94 51.54 6.96Q51.63 6.99 51.71 7.01Q51.79 7.03 51.81 7.04L51.81 7.04Q51.67 8.88 51.61 10.61Q51.55 12.33 51.56 14.17L51.56 14.17Q51.56 14.41 51.57 14.72Q51.58 15.04 51.56 15.27ZM50.23 10.65L50.23 10.65Q50.30 10.51 50.40 10.20Q50.50 9.88 50.56 9.54Q50.62 9.20 50.63 8.90Q50.64 8.60 50.51 8.47L50.51 8.47Q50.25 8.19 49.91 8.06Q49.57 7.94 49.22 7.96Q48.87 7.98 48.55 8.14Q48.22 8.30 47.96 8.58L47.96 8.58Q47.77 8.81 47.66 9.08Q47.54 9.35 47.49 9.65L47.49 9.65Q47.40 10.12 47.50 10.44Q47.59 10.75 47.80 10.93Q48.01 11.10 48.31 11.15Q48.61 11.20 48.94 11.16Q49.28 11.12 49.62 10.98Q49.95 10.85 50.23 10.65ZM55.90 6.76L55.90 6.76Q56.32 6.73 56.76 6.82Q57.20 6.90 57.57 7.15L57.57 7.15Q58.17 7.56 58.48 8.16Q58.79 8.76 58.81 9.41Q58.84 10.07 58.63 10.72Q58.41 11.37 57.98 11.87Q57.55 12.38 56.93 12.68Q56.31 12.98 55.52 12.94L55.52 12.94Q55.20 12.92 54.89 12.81L54.89 12.81Q54.25 12.59 53.82 12.19Q53.40 11.79 53.17 11.28Q52.95 10.77 52.93 10.20Q52.91 9.63 53.08 9.09Q53.26 8.54 53.62 8.06Q53.98 7.59 54.54 7.25L54.54 7.25Q54.70 7.15 54.89 7.05Q55.08 6.94 55.27 6.87L55.27 6.87Q55.43 6.82 55.59 6.80Q55.76 6.78 55.90 6.76ZM57.61 9.45L57.61 9.45Q57.61 9.00 57.41 8.66Q57.22 8.32 56.90 8.12Q56.59 7.92 56.20 7.88Q55.80 7.84 55.43 7.99Q55.05 8.15 54.73 8.50Q54.40 8.85 54.22 9.44L54.22 9.44Q54.18 9.58 54.14 9.71Q54.10 9.84 54.10 9.98L54.10 9.98Q54.10 10.26 54.14 10.54Q54.18 10.81 54.32 11.05L54.32 11.05Q54.57 11.48 55.11 11.60Q55.65 11.72 56.21 11.52Q56.77 11.31 57.19 10.79Q57.61 10.28 57.61 9.45Z"></path></g><!----><g data-v-423bf9ae="" id="6de5e1f3-be9e-423a-91ad-d43460f18c41" transform="matrix(2.8125,0,0,2.8125,0,0)" stroke="none" fill="#ffffff"><path d="M9.382 8.675h13.943v13.943L32 31.293V0H.707zM22.618 23.325H8.675V9.382L0 .707V32h31.293z"></path></g><!----><g data-v-423bf9ae="" id="da5b2016-d03c-4f8a-a25f-e3a83a253376" fill="#ffffff" transform="matrix(1.254964846945604,0,0,1.254964846945604,109.12152418941638,55.24368244516639)"><path d="M7.07 11.97C6.87 11.97 6.79 12.08 6.78 12.31C6.78 12.32 6.78 12.38 6.76 12.43C6.75 12.49 6.75 12.59 6.73 12.71C6.72 12.84 6.71 13.01 6.69 13.20L2.60 13.20L2.60 4.47C2.77 4.47 2.91 4.45 3.05 4.45C3.19 4.45 3.30 4.44 3.37 4.44L3.50 4.44C3.68 4.42 3.78 4.34 3.78 4.19L3.78 3.92L2.60 3.92L1.89 3.92L0.70 3.92L0.70 4.19C0.70 4.34 0.80 4.42 0.98 4.44L1.12 4.44C1.19 4.44 1.29 4.45 1.43 4.45C1.57 4.45 1.72 4.47 1.89 4.47L1.89 13.26C1.72 13.26 1.57 13.27 1.43 13.27C1.29 13.27 1.19 13.29 1.12 13.29L0.98 13.29C0.80 13.30 0.70 13.38 0.70 13.54L0.70 13.82L1.89 13.82L7.17 13.82L7.29 13.82L7.42 13.82L7.42 13.55L7.42 12.99L7.42 11.97L7.14 11.97ZM25.14 13.22L24.68 13.17L20.90 3.91L20.19 3.91L16.39 13.17L15.95 13.22C15.76 13.23 15.68 13.33 15.68 13.50L15.68 13.82L16.13 13.82L16.42 13.82L16.67 13.82L16.77 13.82L18.09 13.82L18.09 13.50C18.09 13.31 17.98 13.23 17.77 13.22C17.75 13.22 17.72 13.20 17.68 13.20C17.64 13.20 17.58 13.19 17.49 13.19C17.39 13.19 17.26 13.19 17.12 13.17L18.10 10.75L18.17 10.57L22.90 10.57L22.97 10.75L23.95 13.17C23.81 13.19 23.70 13.19 23.60 13.19C23.51 13.19 23.44 13.20 23.39 13.20C23.35 13.20 23.32 13.22 23.31 13.22C23.10 13.23 22.99 13.31 22.99 13.50L22.99 13.82L24.30 13.82L24.40 13.82L24.67 13.82L24.95 13.82L25.41 13.82L25.41 13.50C25.41 13.33 25.33 13.23 25.14 13.22ZM20.34 5.22C20.37 5.14 20.41 5.04 20.44 4.94C20.47 4.84 20.51 4.75 20.54 4.63C20.57 4.75 20.61 4.84 20.64 4.94C20.66 5.04 20.71 5.12 20.73 5.21L22.69 10.04L18.40 10.04ZM51.53 3.92L51.34 3.92L44.04 3.92L43.83 3.92L43.74 3.92L43.74 5.96L44.09 5.96C44.28 5.96 44.37 5.85 44.38 5.63C44.38 5.53 44.41 5.17 44.44 4.52L47.33 4.52L47.33 13.26C47.17 13.26 47.03 13.27 46.89 13.27C46.75 13.27 46.63 13.29 46.56 13.29L46.44 13.29C46.26 13.30 46.16 13.38 46.16 13.54L46.16 13.82L47.33 13.82L48.05 13.82L49.24 13.82L49.24 13.54C49.24 13.38 49.14 13.30 48.96 13.29L48.82 13.29C48.75 13.29 48.65 13.27 48.51 13.27C48.37 13.27 48.22 13.26 48.05 13.26L48.05 4.52L50.93 4.52C50.97 5.24 50.99 5.60 50.99 5.63C51.00 5.85 51.10 5.96 51.30 5.96L51.63 5.96L51.63 3.92ZM68.22 13.22L67.76 13.17L63.98 3.91L63.27 3.91L59.47 13.17L59.02 13.22C58.84 13.23 58.76 13.33 58.76 13.50L58.76 13.82L59.21 13.82L59.50 13.82L59.75 13.82L59.85 13.82L61.17 13.82L61.17 13.50C61.17 13.31 61.05 13.23 60.84 13.22C60.83 13.22 60.80 13.20 60.76 13.20C60.72 13.20 60.66 13.19 60.56 13.19C60.47 13.19 60.34 13.19 60.20 13.17L61.18 10.75L61.25 10.57L65.98 10.57L66.05 10.75L67.03 13.17C66.89 13.19 66.78 13.19 66.68 13.19C66.58 13.19 66.51 13.20 66.47 13.20C66.43 13.20 66.40 13.22 66.39 13.22C66.18 13.23 66.07 13.31 66.07 13.50L66.07 13.82L67.38 13.82L67.48 13.82L67.75 13.82L68.03 13.82L68.49 13.82L68.49 13.50C68.49 13.33 68.40 13.23 68.22 13.22ZM63.42 5.22C63.45 5.14 63.49 5.04 63.52 4.94C63.55 4.84 63.59 4.75 63.62 4.63C63.64 4.75 63.69 4.84 63.71 4.94C63.74 5.04 63.78 5.12 63.81 5.21L65.77 10.04L61.47 10.04ZM83.85 3.92L83.50 3.92L77.91 3.92L76.72 3.92L76.72 4.19C76.72 4.34 76.82 4.42 77.00 4.44L77.14 4.44C77.21 4.44 77.31 4.45 77.45 4.45C77.59 4.45 77.74 4.47 77.91 4.47L77.91 13.26C77.74 13.26 77.59 13.27 77.45 13.27C77.31 13.27 77.21 13.29 77.14 13.29L77.00 13.29C76.82 13.30 76.72 13.38 76.72 13.54L76.72 13.82L77.91 13.82L78.62 13.82L79.80 13.82L79.80 13.54C79.80 13.38 79.72 13.30 79.53 13.29L79.39 13.29C79.32 13.29 79.23 13.27 79.09 13.27C78.95 13.27 78.79 13.26 78.62 13.26L78.62 9.27L82.32 9.27L82.32 8.67L78.62 8.67L78.62 4.51L83.23 4.51C83.26 5.18 83.29 5.56 83.29 5.63C83.30 5.85 83.40 5.96 83.59 5.96L83.93 5.96L83.93 3.92ZM100.53 13.22L100.07 13.17L96.29 3.91L95.58 3.91L91.78 13.17L91.34 13.22C91.15 13.23 91.07 13.33 91.07 13.50L91.07 13.82L91.52 13.82L91.81 13.82L92.06 13.82L92.16 13.82L93.48 13.82L93.48 13.50C93.48 13.31 93.37 13.23 93.16 13.22C93.14 13.22 93.11 13.20 93.07 13.20C93.03 13.20 92.97 13.19 92.88 13.19C92.78 13.19 92.65 13.19 92.51 13.17L93.49 10.75L93.56 10.57L98.29 10.57L98.36 10.75L99.34 13.17C99.20 13.19 99.09 13.19 98.99 13.19C98.90 13.19 98.83 13.20 98.78 13.20C98.74 13.20 98.71 13.22 98.70 13.22C98.49 13.23 98.38 13.31 98.38 13.50L98.38 13.82L99.69 13.82L99.79 13.82L100.06 13.82L100.34 13.82L100.80 13.82L100.80 13.50C100.80 13.33 100.72 13.23 100.53 13.22ZM95.73 5.22C95.76 5.14 95.80 5.04 95.83 4.94C95.86 4.84 95.90 4.75 95.93 4.63C95.96 4.75 96.00 4.84 96.03 4.94C96.05 5.04 96.10 5.12 96.12 5.21L98.08 10.04L93.79 10.04ZM117.03 13.29L116.93 13.29L116.75 13.29C116.66 13.29 116.58 13.27 116.49 13.27L113.53 9.53C113.44 9.42 113.33 9.32 113.22 9.25C113.65 9.21 114.04 9.11 114.39 8.96C114.74 8.81 115.02 8.61 115.28 8.37C115.51 8.13 115.71 7.85 115.84 7.55C115.96 7.24 116.03 6.89 116.03 6.51C116.03 5.66 115.75 5.03 115.19 4.58C114.63 4.14 113.78 3.92 112.63 3.92L110.22 3.92L109.05 3.92L109.05 4.19C109.05 4.34 109.13 4.42 109.31 4.44L109.45 4.44C109.52 4.44 109.62 4.45 109.76 4.45C109.90 4.45 110.05 4.47 110.22 4.47L110.22 13.26C110.05 13.26 109.90 13.27 109.76 13.27C109.62 13.27 109.52 13.29 109.45 13.29L109.31 13.29C109.13 13.30 109.03 13.38 109.03 13.54L109.03 13.82L110.22 13.82L110.94 13.82L112.11 13.82L112.11 13.54C112.11 13.38 112.01 13.30 111.83 13.29L111.69 13.29C111.62 13.29 111.52 13.27 111.38 13.27C111.24 13.27 111.10 13.26 110.94 13.26L110.94 9.34L112.11 9.34C112.31 9.34 112.45 9.35 112.53 9.39C112.62 9.44 112.70 9.52 112.78 9.62L115.96 13.64C116.02 13.71 116.06 13.75 116.12 13.78C116.17 13.80 116.24 13.82 116.31 13.82L116.38 13.82L116.93 13.82L117.29 13.82L117.29 13.54C117.29 13.38 117.21 13.30 117.03 13.29ZM112.53 8.81L110.94 8.81L110.94 4.48L112.63 4.48C113.51 4.48 114.18 4.66 114.65 5.00C115.11 5.33 115.33 5.87 115.33 6.57C115.33 6.92 115.28 7.21 115.15 7.49C115.02 7.77 114.83 7.99 114.59 8.19C114.35 8.39 114.06 8.55 113.71 8.65C113.36 8.75 112.97 8.81 112.53 8.81ZM133.49 13.29L133.39 13.29L133.21 13.29C133.13 13.29 133.04 13.27 132.96 13.27L129.99 9.53C129.91 9.42 129.79 9.32 129.68 9.25C130.12 9.21 130.51 9.11 130.86 8.96C131.21 8.81 131.49 8.61 131.74 8.37C131.98 8.13 132.17 7.85 132.30 7.55C132.43 7.24 132.50 6.89 132.50 6.51C132.50 5.66 132.22 5.03 131.66 4.58C131.10 4.14 130.24 3.92 129.09 3.92L126.69 3.92L125.51 3.92L125.51 4.19C125.51 4.34 125.59 4.42 125.78 4.44L125.92 4.44C125.99 4.44 126.08 4.45 126.22 4.45C126.36 4.45 126.52 4.47 126.69 4.47L126.69 13.26C126.52 13.26 126.36 13.27 126.22 13.27C126.08 13.27 125.99 13.29 125.92 13.29L125.78 13.29C125.59 13.30 125.50 13.38 125.50 13.54L125.50 13.82L126.69 13.82L127.40 13.82L128.58 13.82L128.58 13.54C128.58 13.38 128.48 13.30 128.30 13.29L128.16 13.29C128.09 13.29 127.99 13.27 127.85 13.27C127.71 13.27 127.57 13.26 127.40 13.26L127.40 9.34L128.58 9.34C128.77 9.34 128.91 9.35 129.00 9.39C129.08 9.44 129.16 9.52 129.25 9.62L132.43 13.64C132.48 13.71 132.52 13.75 132.58 13.78C132.64 13.80 132.71 13.82 132.78 13.82L132.85 13.82L133.39 13.82L133.76 13.82L133.76 13.54C133.76 13.38 133.67 13.30 133.49 13.29ZM129.00 8.81L127.40 8.81L127.40 4.48L129.09 4.48C129.98 4.48 130.65 4.66 131.11 5.00C131.57 5.33 131.80 5.87 131.80 6.57C131.80 6.92 131.74 7.21 131.61 7.49C131.49 7.77 131.29 7.99 131.05 8.19C130.82 8.39 130.52 8.55 130.17 8.65C129.82 8.75 129.43 8.81 129.00 8.81ZM151.26 13.22L150.79 13.17L147.01 3.91L146.30 3.91L142.51 13.17L142.06 13.22C141.88 13.23 141.79 13.33 141.79 13.50L141.79 13.82L142.24 13.82L142.53 13.82L142.79 13.82L142.88 13.82L144.20 13.82L144.20 13.50C144.20 13.31 144.09 13.23 143.88 13.22C143.86 13.22 143.84 13.20 143.79 13.20C143.75 13.20 143.70 13.19 143.60 13.19C143.50 13.19 143.37 13.19 143.23 13.17L144.21 10.75L144.28 10.57L149.02 10.57L149.09 10.75L150.07 13.17C149.93 13.19 149.81 13.19 149.72 13.19C149.62 13.19 149.55 13.20 149.51 13.20C149.46 13.20 149.44 13.22 149.42 13.22C149.21 13.23 149.10 13.31 149.10 13.50L149.10 13.82L150.42 13.82L150.51 13.82L150.78 13.82L151.06 13.82L151.52 13.82L151.52 13.50C151.52 13.33 151.44 13.23 151.26 13.22ZM146.45 5.22C146.48 5.14 146.52 5.04 146.55 4.94C146.58 4.84 146.62 4.75 146.65 4.63C146.68 4.75 146.72 4.84 146.75 4.94C146.78 5.04 146.82 5.12 146.85 5.21L148.81 10.04L144.51 10.04ZM169.01 8.86C169.01 8.11 168.88 7.41 168.66 6.79C168.43 6.17 168.13 5.64 167.71 5.19C167.29 4.75 166.78 4.40 166.21 4.16C165.63 3.92 164.99 3.79 164.29 3.79C163.59 3.79 162.95 3.92 162.37 4.16C161.80 4.40 161.29 4.75 160.87 5.19C160.45 5.64 160.13 6.17 159.91 6.79C159.68 7.41 159.56 8.11 159.56 8.86C159.56 9.63 159.68 10.33 159.91 10.95C160.13 11.56 160.45 12.10 160.87 12.54C161.29 12.99 161.80 13.33 162.37 13.57C162.95 13.80 163.59 13.93 164.29 13.93C164.65 13.93 165.00 13.89 165.33 13.82C165.65 13.75 165.96 13.68 166.25 13.55L168.36 15.83C168.42 15.90 168.49 15.93 168.56 15.96C168.63 15.99 168.71 16.00 168.81 16.00L169.41 16.00L166.84 13.24C167.17 13.03 167.48 12.78 167.75 12.49C168.01 12.19 168.25 11.86 168.43 11.49C168.62 11.13 168.76 10.72 168.85 10.28C168.95 9.83 169.01 9.37 169.01 8.86ZM168.27 8.86C168.27 9.56 168.18 10.18 167.99 10.72C167.79 11.27 167.52 11.75 167.17 12.12C166.82 12.50 166.40 12.81 165.91 13.01C165.42 13.20 164.89 13.30 164.29 13.30C163.70 13.30 163.16 13.20 162.67 13.01C162.18 12.81 161.76 12.50 161.41 12.12C161.06 11.75 160.79 11.27 160.59 10.72C160.40 10.18 160.30 9.56 160.30 8.86C160.30 8.18 160.40 7.55 160.59 7.00C160.79 6.45 161.06 5.98 161.41 5.60C161.76 5.22 162.18 4.91 162.67 4.72C163.16 4.52 163.70 4.41 164.29 4.41C164.89 4.41 165.42 4.52 165.91 4.72C166.40 4.91 166.82 5.22 167.17 5.60C167.52 5.98 167.79 6.45 167.99 7.00C168.18 7.55 168.27 8.18 168.27 8.86ZM186.65 8.86C186.65 8.11 186.52 7.41 186.30 6.79C186.07 6.17 185.75 5.64 185.33 5.19C184.91 4.75 184.42 4.40 183.85 4.16C183.27 3.92 182.62 3.79 181.92 3.79C181.22 3.79 180.59 3.92 180.01 4.16C179.44 4.40 178.93 4.75 178.51 5.19C178.09 5.64 177.77 6.17 177.55 6.79C177.32 7.41 177.20 8.11 177.20 8.86C177.20 9.63 177.32 10.33 177.55 10.95C177.77 11.56 178.09 12.10 178.51 12.54C178.93 12.99 179.44 13.33 180.01 13.57C180.59 13.80 181.22 13.93 181.92 13.93C182.62 13.93 183.27 13.80 183.85 13.57C184.42 13.33 184.91 12.99 185.33 12.54C185.75 12.10 186.07 11.56 186.30 10.95C186.52 10.33 186.65 9.63 186.65 8.86ZM185.89 8.86C185.89 9.56 185.81 10.18 185.61 10.72C185.42 11.27 185.15 11.75 184.80 12.12C184.45 12.50 184.03 12.81 183.54 13.01C183.05 13.20 182.52 13.30 181.92 13.30C181.33 13.30 180.80 13.20 180.31 13.01C179.82 12.81 179.40 12.50 179.05 12.12C178.70 11.75 178.42 11.27 178.22 10.72C178.02 10.18 177.94 9.56 177.94 8.86C177.94 8.18 178.02 7.55 178.22 7.00C178.42 6.45 178.70 5.98 179.05 5.60C179.40 5.22 179.82 4.91 180.31 4.72C180.80 4.52 181.33 4.41 181.92 4.41C182.52 4.41 183.05 4.52 183.54 4.72C184.03 4.91 184.45 5.22 184.80 5.60C185.15 5.98 185.42 6.45 185.61 7.00C185.81 7.55 185.89 8.18 185.89 8.86Z"></path></g></svg>